<?xml version="1.0" standalone="no"?>
<!DOCTYPE svg PUBLIC "-//W3C//DTD SVG 20010904//EN"
 "http://www.w3.org/TR/2001/REC-SVG-20010904/DTD/svg10.dtd">
<svg version="1.0" xmlns="http://www.w3.org/2000/svg"
 width="700.000000pt" height="700.000000pt" viewBox="0 0 700.000000 700.000000"
 preserveAspectRatio="xMidYMid meet">
<metadata>
Created by potrace 1.14, written by Peter Selinger 2001-2017
</metadata>
<g transform="translate(0.000000,700.000000) scale(0.100000,-0.100000)"
fill="#000000" stroke="none">
<path d="M3278 6996 c-1 -2 -42 -6 -89 -10 -47 -4 -95 -8 -105 -10 -10 -2 -41
-7 -69 -10 -134 -17 -198 -42 -259 -103 -50 -49 -78 -113 -106 -243 -12 -58
-24 -112 -25 -120 -27 -118 -73 -333 -79 -360 -8 -47 -47 -214 -49 -215 -1 -1
-27 -12 -57 -24 -125 -52 -308 -156 -463 -263 l-83 -58 -79 25 c-44 14 -134
43 -200 65 -66 21 -194 61 -285 90 -91 28 -178 56 -194 62 -15 6 -60 12 -100
12 -56 0 -83 -5 -126 -25 -67 -32 -98 -63 -205 -204 -172 -229 -319 -482 -424
-727 -65 -154 -84 -222 -78 -284 10 -107 51 -163 253 -344 49 -45 203 -185
319 -290 33 -31 74 -68 91 -83 25 -22 31 -35 28 -60 -23 -256 -23 -481 2 -638
3 -23 -9 -38 -83 -105 -47 -44 -91 -84 -97 -89 -6 -6 -83 -75 -171 -155 -254
-229 -283 -260 -313 -319 -22 -46 -27 -69 -27 -131 1 -65 6 -90 45 -185 104
-259 276 -562 451 -795 118 -157 160 -196 234 -219 92 -29 145 -21 380 54 566
180 578 184 596 174 10 -5 23 -15 31 -22 16 -15 160 -110 245 -161 35 -20 119
-64 188 -97 129 -61 127 -60 139 -129 2 -14 25 -119 51 -235 26 -116 49 -221
51 -235 3 -14 9 -41 14 -60 5 -19 12 -51 15 -70 21 -122 53 -204 102 -255 68
-72 120 -93 278 -111 22 -2 49 -6 60 -9 48 -10 224 -19 395 -19 203 -1 371 9
490 27 19 3 58 9 85 12 105 14 202 81 245 169 16 33 82 302 105 426 2 14 25
117 50 230 25 113 45 206 45 207 0 2 5 3 10 3 12 0 213 97 285 137 65 37 183
114 251 164 l54 40 288 -91 c158 -51 337 -108 397 -127 175 -56 293 -45 379
35 113 107 340 447 467 702 158 318 189 434 146 551 -22 58 -74 115 -256 279
-52 47 -99 90 -105 95 -6 6 -60 56 -121 110 -209 190 -197 176 -191 210 24
135 24 493 0 630 -5 28 2 37 77 105 46 41 90 82 99 90 9 8 61 56 115 105 166
150 184 167 266 244 104 96 133 155 133 260 0 66 -6 91 -44 186 -100 252 -278
566 -452 795 -134 178 -156 197 -248 224 -76 21 -143 14 -285 -33 -66 -21
-167 -53 -225 -71 -58 -18 -179 -57 -270 -86 l-165 -54 -30 22 c-144 106 -324
213 -475 282 -92 42 -103 49 -106 68 -1 7 -23 110 -49 228 -26 118 -48 222
-50 230 -32 155 -69 314 -81 345 -43 113 -135 185 -256 201 -18 2 -44 6 -58 9
-13 2 -52 7 -86 11 -33 3 -74 8 -90 10 -32 5 -540 14 -546 10z m352 -2411
c101 -14 118 -18 195 -42 327 -102 593 -359 707 -681 10 -31 21 -66 24 -77 5
-23 22 -106 30 -150 3 -16 6 -75 6 -131 0 -89 -4 -135 -18 -209 -2 -11 -6 -31
-9 -45 -17 -92 -84 -246 -155 -355 -149 -227 -420 -412 -682 -464 -119 -23
-283 -31 -363 -17 -16 3 -46 8 -65 11 -115 19 -339 111 -412 169 -14 11 -45
35 -68 51 -58 41 -169 160 -218 232 -197 290 -246 630 -140 963 82 259 273
486 521 624 122 67 312 121 442 125 38 1 71 3 72 4 3 4 84 -1 133 -8z"/>
</g>
</svg>
