<svg width="150" height="150" viewBox="0 0 150 150" fill="none" xmlns="http://www.w3.org/2000/svg">
    <path d="M145.283 48.8086C146.221 51.3574 145.43 54.1992 143.408 56.0156L130.723 67.5586C131.045 69.9902 131.221 72.4805 131.221 75C131.221 77.5195 131.045 80.0098 130.723 82.4414L143.408 93.9844C145.43 95.8008 146.221 98.6426 145.283 101.191C143.994 104.678 142.441 108.018 140.654 111.24L139.277 113.613C137.344 116.836 135.176 119.883 132.803 122.754C131.074 124.863 128.203 125.566 125.625 124.746L109.307 119.561C105.381 122.578 101.045 125.098 96.416 127.002L92.7539 143.73C92.168 146.396 90.1172 148.506 87.4219 148.945C83.3789 149.619 79.2187 149.971 74.9707 149.971C70.7227 149.971 66.5625 149.619 62.5195 148.945C59.8242 148.506 57.7734 146.396 57.1875 143.73L53.5254 127.002C48.8965 125.098 44.5605 122.578 40.6348 119.561L24.3457 124.775C21.7676 125.596 18.8965 124.863 17.168 122.783C14.7949 119.912 12.627 116.865 10.6934 113.643L9.31641 111.27C7.5293 108.047 5.97656 104.707 4.6875 101.221C3.75 98.6719 4.54101 95.8301 6.5625 94.0137L19.248 82.4707C18.9258 80.0098 18.75 77.5195 18.75 75C18.75 72.4805 18.9258 69.9902 19.248 67.5586L6.5625 56.0156C4.54101 54.1992 3.75 51.3574 4.6875 48.8086C5.97656 45.3223 7.5293 41.9824 9.31641 38.7598L10.6934 36.3867C12.627 33.1641 14.7949 30.1172 17.168 27.2461C18.8965 25.1367 21.7676 24.4336 24.3457 25.2539L40.6641 30.4395C44.5898 27.4219 48.9258 24.9023 53.5547 22.998L57.2168 6.26953C57.8027 3.60352 59.8535 1.49414 62.5488 1.05469C66.5918 0.351562 70.752 0 75 0C79.248 0 83.4082 0.351563 87.4512 1.02539C90.1465 1.46484 92.1973 3.57422 92.7832 6.24023L96.4453 22.9688C101.074 24.873 105.41 27.3926 109.336 30.4102L125.654 25.2246C128.232 24.4043 131.104 25.1367 132.832 27.2168C135.205 30.0879 137.373 33.1348 139.307 36.3574L140.684 38.7305C142.471 41.9531 144.023 45.293 145.313 48.7793L145.283 48.8086ZM75 98.4375C81.216 98.4375 87.1774 95.9682 91.5728 91.5728C95.9682 87.1774 98.4375 81.216 98.4375 75C98.4375 68.784 95.9682 62.8226 91.5728 58.4272C87.1774 54.0318 81.216 51.5625 75 51.5625C68.784 51.5625 62.8226 54.0318 58.4272 58.4272C54.0318 62.8226 51.5625 68.784 51.5625 75C51.5625 81.216 54.0318 87.1774 58.4272 91.5728C62.8226 95.9682 68.784 98.4375 75 98.4375Z" fill="#0B78FF"/>
</svg>
